<svg viewBox="0 0 800 320" xmlns="http://www.w3.org/2000/svg" role="img" aria-hidden="true">
  <line x1="24" y1="272" x2="776" y2="272" stroke="#C9BFA8" stroke-width="1.5"/>
  <g stroke="#C9BFA8" stroke-width="1.5">
    <line x1="24" y1="266" x2="24" y2="278"/>
    <line x1="104" y1="269" x2="104" y2="278"/>
    <line x1="184" y1="269" x2="184" y2="278"/>
    <line x1="264" y1="269" x2="264" y2="278"/>
    <line x1="344" y1="266" x2="344" y2="278"/>
    <line x1="424" y1="269" x2="424" y2="278"/>
    <line x1="504" y1="269" x2="504" y2="278"/>
    <line x1="584" y1="269" x2="584" y2="278"/>
    <line x1="664" y1="266" x2="664" y2="278"/>
    <line x1="744" y1="269" x2="744" y2="278"/>
    <line x1="776" y1="266" x2="776" y2="278"/>
  </g>

  <!-- people/third-party figures, protected -->
  <g fill="none" stroke="#15231D" stroke-width="3" stroke-linecap="round" stroke-linejoin="round">
    <circle cx="90" cy="176" r="14"/>
    <path d="M62 232 Q62 198 90 198 Q118 198 118 232"/>
    <circle cx="170" cy="182" r="11"/>
    <path d="M148 226 Q148 200 170 200 Q192 200 192 226"/>
  </g>
  <path d="M40 250 Q130 234 230 250" fill="none" stroke="#C9BFA8" stroke-width="2" stroke-dasharray="8 8"/>

  <!-- signature manifest stamp with shield -->
  <g>
    <circle cx="600" cy="150" r="108" fill="none" stroke="#A6552E" stroke-width="2"/>
    <circle cx="600" cy="150" r="98" fill="none" stroke="#A6552E" stroke-width="1"/>
    <g fill="none" stroke="#15231D" stroke-width="3" stroke-linecap="round" stroke-linejoin="round">
      <path d="M600 112 L634 126 L634 156 Q634 182 600 194 Q566 182 566 156 L566 126 Z"/>
      <path d="M584 152 L596 164 L618 138"/>
    </g>
  </g>
</svg>
